<svg width="422" height="403" viewBox="0 0 422 403" fill="none" xmlns="http://www.w3.org/2000/svg">
<path d="M222.413 9.36068L263.259 135.072C265.133 140.84 270.508 144.746 276.574 144.746H408.754C420.379 144.746 425.212 159.621 415.808 166.454L308.871 244.148C303.964 247.713 301.911 254.032 303.785 259.8L344.632 385.512C348.224 396.567 335.57 405.761 326.165 398.928L219.229 321.234C214.322 317.669 207.678 317.669 202.771 321.234L95.8345 398.928C86.43 405.761 73.7762 396.567 77.3685 385.512L118.215 259.8C120.089 254.032 118.036 247.713 113.129 244.148L6.19233 166.454C-3.21223 159.621 1.62108 144.746 13.2458 144.746H145.426C151.492 144.746 156.867 140.84 158.741 135.072L199.587 9.36066C203.18 -1.69507 218.82 -1.69505 222.413 9.36068Z" fill="#DBFF00" stroke="#819600" stroke-width="2"/>
</svg>
